<?xml version="1.0" encoding="UTF-8"?>
<!DOCTYPE svg PUBLIC "-//W3C//DTD SVG 1.1//EN" "http://www.w3.org/Graphics/SVG/1.1/DTD/svg11.dtd">
<svg xmlns="http://www.w3.org/2000/svg" version="1.1" width="498px" height="189px" style="shape-rendering:geometricPrecision; text-rendering:geometricPrecision; image-rendering:optimizeQuality; fill-rule:evenodd; clip-rule:evenodd" xmlns:xlink="http://www.w3.org/1999/xlink">
<g><path style="opacity:1" fill="#fdfdfd" d="M -0.5,-0.5 C 165.5,-0.5 331.5,-0.5 497.5,-0.5C 497.5,62.5 497.5,125.5 497.5,188.5C 331.5,188.5 165.5,188.5 -0.5,188.5C -0.5,125.5 -0.5,62.5 -0.5,-0.5 Z"/></g>
<g><path style="opacity:1" fill="#9bb4c7" d="M 240.5,27.5 C 235.381,26.8969 230.715,27.5636 226.5,29.5C 225.596,28.791 225.263,27.791 225.5,26.5C 230.695,26.1795 235.695,26.5128 240.5,27.5 Z"/></g>
<g><path style="opacity:1" fill="#5081ba" d="M 183.5,25.5 C 213.408,24.5578 225.242,38.5578 219,67.5C 210.774,80.586 198.941,85.7527 183.5,83C 168.992,78.643 161.325,68.8096 160.5,53.5C 162.354,39.3194 170.02,29.9861 183.5,25.5 Z"/></g>
<g><path style="opacity:1" fill="#a5bcce" d="M 46.5,27.5 C 51.3054,26.5128 56.3054,26.1795 61.5,26.5C 61.8302,45.3408 61.4969,64.0075 60.5,82.5C 60.5,64.1667 60.5,45.8333 60.5,27.5C 55.8333,27.5 51.1667,27.5 46.5,27.5 Z"/></g>
<g><path style="opacity:1" fill="#5082bc" d="M 87.5,38.5 C 87.5,41.8333 87.5,45.1667 87.5,48.5C 92.8333,48.5 98.1667,48.5 103.5,48.5C 103.5,52.5 103.5,56.5 103.5,60.5C 98.1667,60.5 92.8333,60.5 87.5,60.5C 87.5,63.8333 87.5,67.1667 87.5,70.5C 93.1667,70.5 98.8333,70.5 104.5,70.5C 104.5,74.5 104.5,78.5 104.5,82.5C 94.1667,82.5 83.8333,82.5 73.5,82.5C 73.5,81.5 73.5,80.5 73.5,79.5C 74.1667,62.6619 74.8333,45.6619 75.5,28.5C 76.4995,45.8205 76.8328,63.1539 76.5,80.5C 77.675,80.719 78.675,80.3857 79.5,79.5C 78.5143,62.5474 78.181,45.5474 78.5,28.5C 86.8333,28.5 95.1667,28.5 103.5,28.5C 103.5,31.5 103.5,34.5 103.5,37.5C 97.9738,37.1786 92.6405,37.5119 87.5,38.5 Z"/></g>
<g><path style="opacity:1" fill="#5081bb" d="M 315.5,27.5 C 325.833,27.5 336.167,27.5 346.5,27.5C 346.5,31.1667 346.5,34.8333 346.5,38.5C 340.833,38.5 335.167,38.5 329.5,38.5C 329.187,42.0419 329.521,45.3752 330.5,48.5C 335.5,48.5 340.5,48.5 345.5,48.5C 345.5,52.5 345.5,56.5 345.5,60.5C 340.5,60.5 335.5,60.5 330.5,60.5C 329.521,63.6248 329.187,66.9581 329.5,70.5C 335.167,70.5 340.833,70.5 346.5,70.5C 346.5,74.5 346.5,78.5 346.5,82.5C 336.167,82.5 325.833,82.5 315.5,82.5C 315.5,64.1667 315.5,45.8333 315.5,27.5 Z"/></g>
<g><path style="opacity:1" fill="#a3bccd" d="M 411.5,27.5 C 406.833,27.5 402.167,27.5 397.5,27.5C 397.832,38.5202 397.499,49.5202 396.5,60.5C 395.893,60.3764 395.56,60.0431 395.5,59.5C 396.495,48.6794 396.828,37.6794 396.5,26.5C 401.695,26.1795 406.695,26.5128 411.5,27.5 Z"/></g>
<g><path style="opacity:1" fill="#5080ba" d="M 474.5,78.5 C 474.5,79.5 474.5,80.5 474.5,81.5C 469.833,81.5 465.167,81.5 460.5,81.5C 459.199,78.977 458.199,76.3103 457.5,73.5C 450.5,72.1667 443.5,72.1667 436.5,73.5C 435.487,76.1878 434.487,78.8544 433.5,81.5C 428.821,81.6658 424.155,81.4992 419.5,81C 420.38,79.6439 420.714,78.1439 420.5,76.5C 426.499,60.1708 432.499,43.8375 438.5,27.5C 444.425,27.1918 450.259,27.5251 456,28.5C 462.249,45.0739 468.416,61.7405 474.5,78.5 Z"/></g>
<g><path style="opacity:1" fill="#5081bb" d="M 395.5,59.5 C 395.56,60.0431 395.893,60.3764 396.5,60.5C 397.499,49.5202 397.832,38.5202 397.5,27.5C 402.167,27.5 406.833,27.5 411.5,27.5C 411.5,45.8333 411.5,64.1667 411.5,82.5C 406.456,82.8275 401.456,82.4941 396.5,81.5C 388.167,70.8333 379.833,60.1667 371.5,49.5C 370.501,60.4798 370.168,71.4798 370.5,82.5C 365.833,82.5 361.167,82.5 356.5,82.5C 356.5,64.1667 356.5,45.8333 356.5,27.5C 361.511,27.3341 366.511,27.5007 371.5,28C 380.1,38.0922 388.1,48.5922 395.5,59.5 Z"/></g>
<g><path style="opacity:1" fill="#a2bbcd" d="M 11.5,27.5 C 16.3054,26.5128 21.3054,26.1795 26.5,26.5C 26.5,33.8333 26.5,41.1667 26.5,48.5C 25.5088,41.6866 25.1755,34.6866 25.5,27.5C 20.8333,27.5 16.1667,27.5 11.5,27.5 Z"/></g>
<g><path style="opacity:1" fill="#5081bb" d="M 11.5,27.5 C 16.1667,27.5 20.8333,27.5 25.5,27.5C 25.1755,34.6866 25.5088,41.6866 26.5,48.5C 33.1667,48.5 39.8333,48.5 46.5,48.5C 46.5,41.5 46.5,34.5 46.5,27.5C 51.1667,27.5 55.8333,27.5 60.5,27.5C 60.5,45.8333 60.5,64.1667 60.5,82.5C 55.8333,82.5 51.1667,82.5 46.5,82.5C 46.5,74.8333 46.5,67.1667 46.5,59.5C 39.5,59.5 32.5,59.5 25.5,59.5C 25.5,67.1667 25.5,74.8333 25.5,82.5C 20.8333,82.5 16.1667,82.5 11.5,82.5C 11.5,64.1667 11.5,45.8333 11.5,27.5 Z"/></g>
<g><path style="opacity:1" fill="#a6bbcd" d="M 104.5,27.5 C 94.1667,27.5 83.8333,27.5 73.5,27.5C 73.5,44.8333 73.5,62.1667 73.5,79.5C 73.5,80.5 73.5,81.5 73.5,82.5C 72.5031,64.0075 72.1698,45.3408 72.5,26.5C 83.3464,26.1722 94.0131,26.5056 104.5,27.5 Z"/></g>
<g><path style="opacity:1" fill="#4d7db2" d="M 104.5,27.5 C 104.5,31.1667 104.5,34.8333 104.5,38.5C 98.8333,38.5 93.1667,38.5 87.5,38.5C 92.6405,37.5119 97.9738,37.1786 103.5,37.5C 103.5,34.5 103.5,31.5 103.5,28.5C 95.1667,28.5 86.8333,28.5 78.5,28.5C 78.181,45.5474 78.5143,62.5474 79.5,79.5C 78.675,80.3857 77.675,80.719 76.5,80.5C 76.8328,63.1539 76.4995,45.8205 75.5,28.5C 74.8333,45.6619 74.1667,62.6619 73.5,79.5C 73.5,62.1667 73.5,44.8333 73.5,27.5C 83.8333,27.5 94.1667,27.5 104.5,27.5 Z"/></g>
<g><path style="opacity:1" fill="#a6bccd" d="M 152.5,27.5 C 153.814,29.9151 154.481,32.7485 154.5,36C 154.167,38.8333 153.833,41.6667 153.5,44.5C 152.893,44.3764 152.56,44.0431 152.5,43.5C 153.802,38.2663 153.802,32.9329 152.5,27.5 Z"/></g>
<g><path style="opacity:1" fill="#a9c1d2" d="M 315.5,27.5 C 325.987,26.5056 336.654,26.1722 347.5,26.5C 347.5,30.8333 347.5,35.1667 347.5,39.5C 341.833,39.5 336.167,39.5 330.5,39.5C 330.5,42.1667 330.5,44.8333 330.5,47.5C 330.5,47.8333 330.5,48.1667 330.5,48.5C 329.521,45.3752 329.187,42.0419 329.5,38.5C 335.167,38.5 340.833,38.5 346.5,38.5C 346.5,34.8333 346.5,31.1667 346.5,27.5C 336.167,27.5 325.833,27.5 315.5,27.5 Z"/></g>
<g><path style="opacity:1" fill="#fbfcfb" d="M 185.5,39.5 C 195.033,37.8509 202.2,41.1843 207,49.5C 208.192,64.9682 201.026,71.4682 185.5,69C 176.823,64.8097 173.657,57.9764 176,48.5C 178.406,44.5915 181.572,41.5915 185.5,39.5 Z"/></g>
<g><path style="opacity:1" fill="#cddce5" d="M 330.5,48.5 C 330.5,48.1667 330.5,47.8333 330.5,47.5C 335.833,47.5 341.167,47.5 346.5,47.5C 346.818,52.0323 346.485,56.3656 345.5,60.5C 345.5,56.5 345.5,52.5 345.5,48.5C 340.5,48.5 335.5,48.5 330.5,48.5 Z"/></g>
<g><path style="opacity:1" fill="#5080ba" d="M 152.5,27.5 C 153.802,32.9329 153.802,38.2663 152.5,43.5C 142.828,37.0933 134.328,38.4266 127,47.5C 123.73,63.5621 130.23,70.7287 146.5,69C 148.91,68.4005 150.91,67.2338 152.5,65.5C 153.488,70.6405 153.821,75.9738 153.5,81.5C 134.773,87.2039 121.273,81.2039 113,63.5C 108.952,45.0989 115.785,32.5989 133.5,26C 139.929,25.3269 146.262,25.8269 152.5,27.5 Z"/></g>
<g><path style="opacity:1" fill="#f2f6f7" d="M 452.5,59.5 C 451.129,60.7868 449.295,61.4535 447,61.5C 444.967,61.4944 443.134,61.1611 441.5,60.5C 443.03,55.078 444.863,49.7447 447,44.5C 449.41,49.3145 451.244,54.3145 452.5,59.5 Z"/></g>
<g><path style="opacity:1" fill="#5181bb" d="M 240.5,27.5 C 243.726,38.4457 246.892,49.4457 250,60.5C 254.119,49.9808 257.952,39.3142 261.5,28.5C 265.783,27.5078 270.116,27.1744 274.5,27.5C 277.454,38.9266 280.787,50.26 284.5,61.5C 287.98,50.587 291.314,39.587 294.5,28.5C 299.456,27.5059 304.456,27.1725 309.5,27.5C 303.635,45.7618 297.969,64.0952 292.5,82.5C 287.5,82.5 282.5,82.5 277.5,82.5C 274.939,71.9218 271.605,61.5885 267.5,51.5C 263.45,61.3131 259.783,71.3131 256.5,81.5C 251.615,82.8023 246.782,82.8023 242,81.5C 236.922,64.1035 231.756,46.7702 226.5,29.5C 230.715,27.5636 235.381,26.8969 240.5,27.5 Z"/></g>
<g><path style="opacity:1" fill="#8baac5" d="M 452.5,59.5 C 453.404,60.209 453.737,61.209 453.5,62.5C 449.116,62.8256 444.783,62.4922 440.5,61.5C 440.624,60.8933 440.957,60.56 441.5,60.5C 443.134,61.1611 444.967,61.4944 447,61.5C 449.295,61.4535 451.129,60.7868 452.5,59.5 Z"/></g>
<g><path style="opacity:1" fill="#c0d3e0" d="M 330.5,60.5 C 330.5,63.5 330.5,66.5 330.5,69.5C 336.167,69.5 341.833,69.5 347.5,69.5C 347.818,74.0323 347.485,78.3656 346.5,82.5C 346.5,78.5 346.5,74.5 346.5,70.5C 340.833,70.5 335.167,70.5 329.5,70.5C 329.187,66.9581 329.521,63.6248 330.5,60.5 Z"/></g>
<g><path style="opacity:1" fill="#a7bdce" d="M 152.5,65.5 C 152.56,64.9569 152.893,64.6236 153.5,64.5C 154.816,70.3204 154.816,75.9871 153.5,81.5C 153.821,75.9738 153.488,70.6405 152.5,65.5 Z"/></g>
<g><path style="opacity:1" fill="#799cc2" d="M 420.5,76.5 C 420.714,78.1439 420.38,79.6439 419.5,81C 424.155,81.4992 428.821,81.6658 433.5,81.5C 428.695,82.4872 423.695,82.8205 418.5,82.5C 418.595,80.2143 419.262,78.2143 420.5,76.5 Z"/></g>
<g><path style="opacity:1" fill="#7e9dc2" d="M 474.5,78.5 C 475.434,79.5676 475.768,80.901 475.5,82.5C 470.305,82.8205 465.305,82.4872 460.5,81.5C 465.167,81.5 469.833,81.5 474.5,81.5C 474.5,80.5 474.5,79.5 474.5,78.5 Z"/></g>
<g><path style="opacity:1" fill="#b1c3d0" d="M 5.5,112.5 C 49.8383,112.167 94.1717,112.5 138.5,113.5C 116.333,113.833 94.1667,114.167 72,114.5C 49.4898,114.5 27.3231,113.833 5.5,112.5 Z"/></g>
<g><path style="opacity:1" fill="#b1c3d0" d="M 165.5,112.5 C 216.171,112.167 266.838,112.5 317.5,113.5C 292.167,113.833 266.833,114.167 241.5,114.5C 215.824,114.5 190.491,113.833 165.5,112.5 Z"/></g>
<g><path style="opacity:1" fill="#b1c4d0" d="M 347.5,112.5 C 394.171,112.167 440.838,112.5 487.5,113.5C 464.167,113.833 440.833,114.167 417.5,114.5C 393.824,114.5 370.49,113.833 347.5,112.5 Z"/></g>
<g><path style="opacity:1" fill="#b55853" d="M 408.5,116.5 C 412.35,116.701 413.35,118.534 411.5,122C 410.207,122.49 408.873,122.657 407.5,122.5C 407.325,120.379 407.659,118.379 408.5,116.5 Z"/></g>
<g><path style="opacity:1" fill="#b94c4b" d="M 355.5,118.5 C 360.5,118.5 365.5,118.5 370.5,118.5C 370.5,119.833 370.5,121.167 370.5,122.5C 368.833,122.5 367.167,122.5 365.5,122.5C 365.5,128.5 365.5,134.5 365.5,140.5C 363.833,140.5 362.167,140.5 360.5,140.5C 360.5,134.5 360.5,128.5 360.5,122.5C 358.833,122.5 357.167,122.5 355.5,122.5C 355.5,121.167 355.5,119.833 355.5,118.5 Z"/></g>
<g><path style="opacity:1" fill="#bd4c49" d="M 82.5,116.5 C 83.8333,116.5 85.1667,116.5 86.5,116.5C 86.5,124.167 86.5,131.833 86.5,139.5C 85.1667,139.5 83.8333,139.5 82.5,139.5C 82.5,131.833 82.5,124.167 82.5,116.5 Z"/></g>
<g><path style="opacity:1" fill="#d4b0aa" d="M 101.5,116.5 C 103.265,115.539 105.265,115.205 107.5,115.5C 107.5,119.167 107.5,122.833 107.5,126.5C 106.523,123.713 106.19,120.713 106.5,117.5C 105.081,116.549 103.415,116.216 101.5,116.5 Z"/></g>
<g><path style="opacity:1" fill="#d5afab" d="M 179.5,118.5 C 179.167,118.5 178.833,118.5 178.5,118.5C 175.167,118.5 171.833,118.5 168.5,118.5C 168.5,125.833 168.5,133.167 168.5,140.5C 167.508,133.018 167.175,125.352 167.5,117.5C 171.702,117.183 175.702,117.517 179.5,118.5 Z"/></g>
<g><path style="opacity:1" fill="#bb504e" d="M 291.5,116.5 C 293.167,116.5 294.833,116.5 296.5,116.5C 296.335,119.85 296.502,123.183 297,126.5C 300.163,125.081 303.163,125.415 306,127.5C 306.499,131.821 306.666,136.154 306.5,140.5C 304.833,140.5 303.167,140.5 301.5,140.5C 301.665,137.15 301.498,133.817 301,130.5C 299.667,129.167 298.333,129.167 297,130.5C 296.502,133.817 296.335,137.15 296.5,140.5C 294.833,140.5 293.167,140.5 291.5,140.5C 291.5,132.5 291.5,124.5 291.5,116.5 Z"/></g>
<g><path style="opacity:1" fill="#bb5960" d="M 81.5,116.5 C 81.8333,116.5 82.1667,116.5 82.5,116.5C 82.5,124.167 82.5,131.833 82.5,139.5C 83.8333,139.5 85.1667,139.5 86.5,139.5C 86.5,139.833 86.5,140.167 86.5,140.5C 84.8333,140.5 83.1667,140.5 81.5,140.5C 81.5,132.5 81.5,124.5 81.5,116.5 Z"/></g>
<g><path style="opacity:1" fill="#b75854" d="M 437.5,116.5 C 440.966,117.109 441.966,118.942 440.5,122C 435.289,122.546 434.289,120.713 437.5,116.5 Z"/></g>
<g><path style="opacity:1" fill="#d7afb2" d="M 355.5,118.5 C 360.64,117.512 365.974,117.179 371.5,117.5C 371.5,119.5 371.5,121.5 371.5,123.5C 369.833,123.5 368.167,123.5 366.5,123.5C 366.822,129.358 366.489,135.025 365.5,140.5C 365.5,134.5 365.5,128.5 365.5,122.5C 367.167,122.5 368.833,122.5 370.5,122.5C 370.5,121.167 370.5,119.833 370.5,118.5C 365.5,118.5 360.5,118.5 355.5,118.5 Z"/></g>
<g><path style="opacity:1" fill="#bd4f4d" d="M 17.5,118.5 C 19.5,118.5 21.5,118.5 23.5,118.5C 23.5,121.167 23.5,123.833 23.5,126.5C 26.1667,126.5 28.8333,126.5 31.5,126.5C 31.5,123.833 31.5,121.167 31.5,118.5C 33.1667,118.5 34.8333,118.5 36.5,118.5C 36.5,125.833 36.5,133.167 36.5,140.5C 34.8333,140.5 33.1667,140.5 31.5,140.5C 31.5,137.5 31.5,134.5 31.5,131.5C 28.8333,131.5 26.1667,131.5 23.5,131.5C 23.5,134.5 23.5,137.5 23.5,140.5C 21.5,140.5 19.5,140.5 17.5,140.5C 17.5,133.167 17.5,125.833 17.5,118.5 Z"/></g>
<g><path style="opacity:1" fill="#bb5150" d="M 91.5,121.5 C 93.1667,121.5 94.8333,121.5 96.5,121.5C 96.5,122.833 96.5,124.167 96.5,125.5C 97.5,125.5 98.5,125.5 99.5,125.5C 99.5,127.167 99.5,128.833 99.5,130.5C 98.5,130.5 97.5,130.5 96.5,130.5C 96.5,133.833 96.5,137.167 96.5,140.5C 94.8333,140.5 93.1667,140.5 91.5,140.5C 91.9458,135.918 91.2792,131.585 89.5,127.5C 90.7545,125.666 91.4211,123.666 91.5,121.5 Z"/></g>
<g><path style="opacity:1" fill="#bd5553" d="M 44.5,125.5 C 52.9019,123.844 57.2352,127.177 57.5,135.5C 53.8183,135.335 50.1516,135.501 46.5,136C 47.263,136.944 48.263,137.444 49.5,137.5C 51.8749,136.417 54.2083,136.417 56.5,137.5C 51.7895,142.674 46.9562,142.674 42,137.5C 39.5112,132.757 40.3445,128.757 44.5,125.5 Z"/></g>
<g><path style="opacity:1" fill="#d2a9a7" d="M 81.5,116.5 C 83.2646,115.539 85.2646,115.205 87.5,115.5C 87.8261,124.017 87.4927,132.35 86.5,140.5C 86.5,140.167 86.5,139.833 86.5,139.5C 86.5,131.833 86.5,124.167 86.5,116.5C 85.1667,116.5 83.8333,116.5 82.5,116.5C 82.1667,116.5 81.8333,116.5 81.5,116.5 Z"/></g>
<g><path style="opacity:1" fill="#cc9d9c" d="M 378.5,126.5 C 376.833,126.5 375.167,126.5 373.5,126.5C 373.5,131.167 373.5,135.833 373.5,140.5C 372.513,135.695 372.179,130.695 372.5,125.5C 374.735,125.205 376.735,125.539 378.5,126.5 Z"/></g>
<g><path style="opacity:1" fill="#cc9e9c" d="M 450.5,126.5 C 448.833,126.5 447.167,126.5 445.5,126.5C 445.5,131.167 445.5,135.833 445.5,140.5C 444.513,135.695 444.179,130.695 444.5,125.5C 446.735,125.205 448.735,125.539 450.5,126.5 Z"/></g>
<g><path style="opacity:1" fill="#b65250" d="M 178.5,118.5 C 178.833,118.5 179.167,118.5 179.5,118.5C 184.078,119.843 185.578,122.843 184,127.5C 183.623,128.942 182.79,129.942 181.5,130.5C 181.53,129.503 181.03,128.836 180,128.5C 177.566,129.322 175.066,129.656 172.5,129.5C 172.024,126.073 172.024,122.74 172.5,119.5C 174.541,120.236 176.541,121.069 178.5,122C 179.14,129.092 180.474,129.259 182.5,122.5C 180.921,121.333 179.588,120 178.5,118.5 Z"/></g>
<g><path style="opacity:1" fill="#d2a6a8" d="M 174.5,122.5 C 174.5,124.167 174.5,125.833 174.5,127.5C 175.5,127.5 176.5,127.5 177.5,127.5C 176.432,128.434 175.099,128.768 173.5,128.5C 173.205,126.265 173.539,124.265 174.5,122.5 Z"/></g>
<g><path style="opacity:1" fill="#bb514f" d="M 204.5,131.5 C 204.5,132.5 204.5,133.5 204.5,134.5C 200.774,134.177 197.107,134.511 193.5,135.5C 193.624,136.107 193.957,136.44 194.5,136.5C 197.713,136.891 201.047,137.225 204.5,137.5C 200.883,141.59 196.55,142.423 191.5,140C 187.568,135.263 187.568,130.596 191.5,126C 195.95,124.886 199.95,125.72 203.5,128.5C 204.127,129.417 204.461,130.417 204.5,131.5 Z"/></g>
<g><path style="opacity:1" fill="#bc4f4e" d="M 273.5,125.5 C 273.5,126.833 273.5,128.167 273.5,129.5C 271.901,129.232 270.568,129.566 269.5,130.5C 268.883,130.611 268.383,130.944 268,131.5C 267.502,134.482 267.335,137.482 267.5,140.5C 265.833,140.5 264.167,140.5 262.5,140.5C 262.5,135.5 262.5,130.5 262.5,125.5C 266.263,126.087 269.929,126.087 273.5,125.5 Z"/></g>
<g><path style="opacity:1" fill="#ba5351" d="M 373.5,140.5 C 373.5,135.833 373.5,131.167 373.5,126.5C 375.167,126.5 376.833,126.5 378.5,126.5C 378.435,126.938 378.601,127.272 379,127.5C 380.584,126.139 382.418,125.472 384.5,125.5C 384.5,127.167 384.5,128.833 384.5,130.5C 382.533,130.261 380.699,130.594 379,131.5C 378.502,134.482 378.335,137.482 378.5,140.5C 376.833,140.5 375.167,140.5 373.5,140.5 Z"/></g>
<g><path style="opacity:1" fill="#bd4e4b" d="M 407.5,125.5 C 409.167,125.5 410.833,125.5 412.5,125.5C 412.5,130.5 412.5,135.5 412.5,140.5C 410.833,140.5 409.167,140.5 407.5,140.5C 407.5,135.5 407.5,130.5 407.5,125.5 Z"/></g>
<g><path style="opacity:1" fill="#bb4f4d" d="M 416.5,125.5 C 420.795,126.359 425.128,126.526 429.5,126C 430,126.5 430.5,127 431,127.5C 431.499,131.821 431.666,136.154 431.5,140.5C 429.833,140.5 428.167,140.5 426.5,140.5C 426.665,137.15 426.498,133.817 426,130.5C 424.667,129.167 423.333,129.167 422,130.5C 421.502,133.817 421.335,137.15 421.5,140.5C 419.833,140.5 418.167,140.5 416.5,140.5C 416.5,135.5 416.5,130.5 416.5,125.5 Z"/></g>
<g><path style="opacity:1" fill="#c04e4a" d="M 66.5,130.5 C 66.5,131.167 66.1667,131.5 65.5,131.5C 64.8614,132.097 64.528,132.93 64.5,134C 65.6482,136.307 66.9815,138.474 68.5,140.5C 67.5,140.5 66.5,140.5 65.5,140.5C 63.5956,140.262 62.2623,139.262 61.5,137.5C 61.9927,135.079 61.9927,132.745 61.5,130.5C 63.4145,129.291 65.2478,127.958 67,126.5C 67.5,126.833 68,127.167 68.5,127.5C 67.3881,128.265 66.7214,129.265 66.5,130.5 Z"/></g>
<g><path style="opacity:1" fill="#bb524f" d="M 238.5,131.5 C 238.5,132.5 238.5,133.5 238.5,134.5C 234.774,134.177 231.107,134.511 227.5,135.5C 227.624,136.107 227.957,136.44 228.5,136.5C 231.713,136.891 235.047,137.225 238.5,137.5C 234.883,141.59 230.55,142.423 225.5,140C 221.966,135.924 221.633,131.591 224.5,127C 228.749,124.987 232.916,125.154 237,127.5C 237.791,128.745 238.291,130.078 238.5,131.5 Z"/></g>
<g><path style="opacity:1" fill="#f8f2f1" d="M 232.5,129.5 C 232.38,130.586 231.713,131.253 230.5,131.5C 229.584,131.457 228.917,131.124 228.5,130.5C 229.538,128.481 230.872,128.147 232.5,129.5 Z"/></g>
<g><path style="opacity:1" fill="#c39194" d="M 273.5,125.5 C 274.451,126.919 274.784,128.585 274.5,130.5C 272.833,130.5 271.167,130.5 269.5,130.5C 270.568,129.566 271.901,129.232 273.5,129.5C 273.5,128.167 273.5,126.833 273.5,125.5 Z"/></g>
<g><path style="opacity:1" fill="#bb4f4d" d="M 106.5,117.5 C 106.19,120.713 106.523,123.713 107.5,126.5C 110.582,124.931 113.415,125.265 116,127.5C 116.499,131.821 116.666,136.154 116.5,140.5C 114.833,140.5 113.167,140.5 111.5,140.5C 111.665,137.15 111.498,133.817 111,130.5C 109.855,129.316 108.688,129.316 107.5,130.5C 106.523,133.287 106.19,136.287 106.5,139.5C 105.167,139.5 103.833,139.5 102.5,139.5C 102.5,132.167 102.5,124.833 102.5,117.5C 103.833,117.5 105.167,117.5 106.5,117.5 Z"/></g>
<g><path style="opacity:1" fill="#ba504e" d="M 445.5,140.5 C 445.5,135.833 445.5,131.167 445.5,126.5C 447.167,126.5 448.833,126.5 450.5,126.5C 453.87,124.941 457.036,125.274 460,127.5C 460.499,131.821 460.666,136.154 460.5,140.5C 458.833,140.5 457.167,140.5 455.5,140.5C 455.665,137.15 455.498,133.817 455,130.5C 453.667,129.167 452.333,129.167 451,130.5C 450.502,133.817 450.335,137.15 450.5,140.5C 448.833,140.5 447.167,140.5 445.5,140.5 Z"/></g>
<g><path style="opacity:1" fill="#e7cdca" d="M 47.5,128.5 C 49.9124,128.244 51.5791,129.244 52.5,131.5C 50.604,132.466 48.604,132.799 46.5,132.5C 46.4326,131.041 46.7659,129.708 47.5,128.5 Z"/></g>
<g><path style="opacity:1" fill="#5380b5" d="M 141.5,129.5 C 145.068,129.759 146.401,131.759 145.5,135.5C 139.541,136.222 138.207,134.222 141.5,129.5 Z"/></g>
<g><path style="opacity:1" fill="#e6cbca" d="M 195.5,128.5 C 198.5,128.167 199.833,129.5 199.5,132.5C 197.396,132.799 195.396,132.466 193.5,131.5C 194.193,130.482 194.859,129.482 195.5,128.5 Z"/></g>
<g><path style="opacity:1" fill="#bb5450" d="M 210.5,125.5 C 213.572,125.183 216.572,125.516 219.5,126.5C 217.851,127.988 215.851,128.988 213.5,129.5C 214.991,131.012 216.824,132.012 219,132.5C 220.218,139.283 217.384,142.116 210.5,141C 209.09,140.632 208.09,139.799 207.5,138.5C 209.483,136.976 211.816,135.976 214.5,135.5C 208.343,134.016 207.01,130.683 210.5,125.5 Z"/></g>
<g><path style="opacity:1" fill="#dab3b5" d="M 232.5,129.5 C 233.404,130.209 233.737,131.209 233.5,132.5C 231.396,132.799 229.396,132.466 227.5,131.5C 227.624,130.893 227.957,130.56 228.5,130.5C 228.917,131.124 229.584,131.457 230.5,131.5C 231.713,131.253 232.38,130.586 232.5,129.5 Z"/></g>
<g><path style="opacity:1" fill="#bb524f" d="M 279.5,125.5 C 282.167,125.5 284.833,125.5 287.5,125.5C 287.66,127.199 287.494,128.866 287,130.5C 281.744,128.906 280.244,130.739 282.5,136C 284.112,136.72 285.612,136.554 287,135.5C 287.494,137.134 287.66,138.801 287.5,140.5C 278.892,141.724 275.059,138.057 276,129.5C 277.376,128.295 278.542,126.962 279.5,125.5 Z"/></g>
<g><path style="opacity:1" fill="#bc4e4c" d="M 178.5,118.5 C 179.588,120 180.921,121.333 182.5,122.5C 180.474,129.259 179.14,129.092 178.5,122C 176.541,121.069 174.541,120.236 172.5,119.5C 172.024,122.74 172.024,126.073 172.5,129.5C 175.066,129.656 177.566,129.322 180,128.5C 181.03,128.836 181.53,129.503 181.5,130.5C 180.427,131.251 180.26,132.251 181,133.5C 182.743,135.321 184.243,137.321 185.5,139.5C 180.431,141.45 177.098,139.783 175.5,134.5C 175.44,133.957 175.107,133.624 174.5,133.5C 173.526,135.743 173.192,138.076 173.5,140.5C 171.833,140.5 170.167,140.5 168.5,140.5C 168.5,133.167 168.5,125.833 168.5,118.5C 171.833,118.5 175.167,118.5 178.5,118.5 Z"/></g>
<g><path style="opacity:1" fill="#f9f3f1" d="M 174.5,122.5 C 178.284,122.525 179.284,124.192 177.5,127.5C 176.5,127.5 175.5,127.5 174.5,127.5C 174.5,125.833 174.5,124.167 174.5,122.5 Z"/></g>
<g><path style="opacity:1" fill="#537fb3" d="M 330.5,129.5 C 334.485,129.629 335.818,131.463 334.5,135C 332.866,135.494 331.199,135.66 329.5,135.5C 329.325,133.379 329.659,131.379 330.5,129.5 Z"/></g>
<g><path style="opacity:1" fill="#bb4f4c" d="M 436.5,125.5 C 438.167,125.5 439.833,125.5 441.5,125.5C 441.5,130.5 441.5,135.5 441.5,140.5C 439.833,140.5 438.167,140.5 436.5,140.5C 436.5,135.5 436.5,130.5 436.5,125.5 Z"/></g>
<g><path style="opacity:1" fill="#cc9592" d="M 204.5,131.5 C 205.434,132.568 205.768,133.901 205.5,135.5C 201.629,135.185 197.962,135.518 194.5,136.5C 193.957,136.44 193.624,136.107 193.5,135.5C 197.107,134.511 200.774,134.177 204.5,134.5C 204.5,133.5 204.5,132.5 204.5,131.5 Z"/></g>
<g><path style="opacity:1" fill="#ce9690" d="M 238.5,131.5 C 239.434,132.568 239.768,133.901 239.5,135.5C 235.629,135.185 231.962,135.518 228.5,136.5C 227.957,136.44 227.624,136.107 227.5,135.5C 231.107,134.511 234.774,134.177 238.5,134.5C 238.5,133.5 238.5,132.5 238.5,131.5 Z"/></g>
<g><path style="opacity:1" fill="#ba6967" d="M 101.5,116.5 C 103.415,116.216 105.081,116.549 106.5,117.5C 105.167,117.5 103.833,117.5 102.5,117.5C 102.5,124.833 102.5,132.167 102.5,139.5C 103.833,139.5 105.167,139.5 106.5,139.5C 106.19,136.287 106.523,133.287 107.5,130.5C 107.5,133.833 107.5,137.167 107.5,140.5C 105.5,140.5 103.5,140.5 101.5,140.5C 101.5,132.5 101.5,124.5 101.5,116.5 Z"/></g>
<g><path style="opacity:1" fill="#d3a8ac" d="M 175.5,134.5 C 174.833,136.5 174.167,138.5 173.5,140.5C 173.192,138.076 173.526,135.743 174.5,133.5C 175.107,133.624 175.44,133.957 175.5,134.5 Z"/></g>
<g><path style="opacity:1" fill="#bc514f" d="M 245.5,125.5 C 249.871,126.538 254.205,126.538 258.5,125.5C 258.5,130.5 258.5,135.5 258.5,140.5C 256.409,140.682 254.409,140.348 252.5,139.5C 249.097,142.199 245.93,141.866 243,138.5C 240.467,133.351 241.3,129.018 245.5,125.5 Z"/></g>
<g><path style="opacity:1" fill="#f6f0ef" d="M 247.5,130.5 C 249.199,130.34 250.866,130.506 252.5,131C 253.813,134.692 252.48,136.359 248.5,136C 247.594,134.301 247.261,132.467 247.5,130.5 Z"/></g>
<g><path style="opacity:1" fill="#bd5351" d="M 403.5,140.5 C 399.5,139.167 395.5,139.167 391.5,140.5C 386.508,138.517 384.675,134.85 386,129.5C 387.167,128.333 388.333,127.167 389.5,126C 394.187,126.615 398.854,126.449 403.5,125.5C 403.5,130.5 403.5,135.5 403.5,140.5 Z"/></g>
<g><path style="opacity:1" fill="#f5eeed" d="M 392.5,130.5 C 394.167,130.5 395.833,130.5 397.5,130.5C 398.322,136.209 396.489,137.543 392,134.5C 391.421,133.072 391.588,131.738 392.5,130.5 Z"/></g>
<g><path style="opacity:1" fill="#bb5552" d="M 467.5,125.5 C 471.871,126.538 476.205,126.538 480.5,125.5C 480.666,131.842 480.5,138.175 480,144.5C 474.119,150.022 468.619,149.688 463.5,143.5C 467.126,142.878 470.793,142.711 474.5,143C 475.731,141.817 475.731,140.651 474.5,139.5C 465.698,141.866 462.198,138.533 464,129.5C 465.376,128.295 466.542,126.962 467.5,125.5 Z"/></g>
<g><path style="opacity:1" fill="#f6f2f0" d="M 470.5,129.5 C 475.328,129.385 476.661,131.552 474.5,136C 469.57,136.427 468.237,134.26 470.5,129.5 Z"/></g>
<g><path style="opacity:1" fill="#b95756" d="M 72.5,126.5 C 73.9187,125.549 75.5853,125.216 77.5,125.5C 77.5,130.5 77.5,135.5 77.5,140.5C 74.393,139.924 71.393,139.924 68.5,140.5C 66.9815,138.474 65.6482,136.307 64.5,134C 64.528,132.93 64.8614,132.097 65.5,131.5C 65.6294,135.485 67.4628,136.818 71,135.5C 71.4935,133.866 71.6602,132.199 71.5,130.5C 69.8333,130.5 68.1667,130.5 66.5,130.5C 66.7214,129.265 67.3881,128.265 68.5,127.5C 68,127.167 67.5,126.833 67,126.5C 65.2478,127.958 63.4145,129.291 61.5,130.5C 61.9927,132.745 61.9927,135.079 61.5,137.5C 58.4224,133.133 59.0891,129.3 63.5,126C 66.5314,125.505 69.5314,125.671 72.5,126.5 Z"/></g>
<g><path style="opacity:1" fill="#be4d4b" d="M 72.5,126.5 C 73.8333,126.5 75.1667,126.5 76.5,126.5C 76.5,130.833 76.5,135.167 76.5,139.5C 72.1987,139.652 71.1987,138.318 73.5,135.5C 73.1395,132.416 71.8062,129.916 69.5,128C 70.7375,127.768 71.7375,127.268 72.5,126.5 Z"/></g>
<g><path style="opacity:1" fill="#f6efee" d="M 66.5,130.5 C 68.1667,130.5 69.8333,130.5 71.5,130.5C 71.6602,132.199 71.4935,133.866 71,135.5C 67.4628,136.818 65.6294,135.485 65.5,131.5C 66.1667,131.5 66.5,131.167 66.5,130.5 Z"/></g>
<g><path style="opacity:1" fill="#e8cfcd" d="M 77.5,140.5 C 73.5,141.833 69.5,141.833 65.5,140.5C 66.5,140.5 67.5,140.5 68.5,140.5C 71.393,139.924 74.393,139.924 77.5,140.5 Z"/></g>
<g><path style="opacity:1" fill="#e6cfcc" d="M 403.5,140.5 C 399.5,141.833 395.5,141.833 391.5,140.5C 395.5,139.167 399.5,139.167 403.5,140.5 Z"/></g>
</svg>
